<mxfile host="app.diagrams.net" modified="2023-06-30T04:42:07.210Z" agent="Mozilla/5.0 (Windows NT 10.0; Win64; x64) AppleWebKit/537.36 (KHTML, like Gecko) Chrome/114.0.0.0 Safari/537.36" etag="gWZUOuBxk5YTkKpDyoI9" version="21.5.0" type="device">
  <diagram name="Page-1" id="0SQMpVgh-vj9nuXpa0WX">
    <mxGraphModel dx="1257" dy="610" grid="1" gridSize="10" guides="1" tooltips="1" connect="1" arrows="1" fold="1" page="1" pageScale="1" pageWidth="850" pageHeight="1100" math="0" shadow="0">
      <root>
        <mxCell id="0" />
        <mxCell id="1" parent="0" />
        <mxCell id="YxFn2TzCpDeZR-SsBONR-86" value="" style="swimlane;startSize=0;" vertex="1" parent="1">
          <mxGeometry x="80" y="40" width="720" height="710" as="geometry" />
        </mxCell>
        <mxCell id="YxFn2TzCpDeZR-SsBONR-91" value="Admin" style="shape=umlActor;verticalLabelPosition=bottom;verticalAlign=top;html=1;outlineConnect=0;fontFamily=Times New Roman;" vertex="1" parent="YxFn2TzCpDeZR-SsBONR-86">
          <mxGeometry x="40" y="285" width="30" height="60" as="geometry" />
        </mxCell>
        <mxCell id="YxFn2TzCpDeZR-SsBONR-92" value="&lt;font color=&quot;#000000&quot;&gt;Sistem Penginapan&lt;/font&gt;" style="shape=umlFrame;whiteSpace=wrap;html=1;pointerEvents=0;fontFamily=Times New Roman;width=85;height=40;fillColor=#ffffff;" vertex="1" parent="YxFn2TzCpDeZR-SsBONR-86">
          <mxGeometry x="110" y="30" width="570" height="650" as="geometry" />
        </mxCell>
        <mxCell id="YxFn2TzCpDeZR-SsBONR-93" value="Mengelola Kamar" style="ellipse;whiteSpace=wrap;html=1;fontFamily=Times New Roman;fillColor=#0050ef;fontColor=#ffffff;strokeColor=#ffffff;" vertex="1" parent="YxFn2TzCpDeZR-SsBONR-86">
          <mxGeometry x="160" y="250" width="140" height="50" as="geometry" />
        </mxCell>
        <mxCell id="YxFn2TzCpDeZR-SsBONR-87" style="rounded=0;orthogonalLoop=1;jettySize=auto;html=1;exitX=1;exitY=0.3333333333333333;exitDx=0;exitDy=0;exitPerimeter=0;entryX=0;entryY=0.5;entryDx=0;entryDy=0;fontFamily=Times New Roman;" edge="1" parent="YxFn2TzCpDeZR-SsBONR-86" source="YxFn2TzCpDeZR-SsBONR-91" target="YxFn2TzCpDeZR-SsBONR-93">
          <mxGeometry relative="1" as="geometry" />
        </mxCell>
        <mxCell id="YxFn2TzCpDeZR-SsBONR-97" value="Mengelola Data Pelanggan" style="ellipse;whiteSpace=wrap;html=1;fontFamily=Times New Roman;fillColor=#0050ef;fontColor=#ffffff;strokeColor=#ffffff;" vertex="1" parent="YxFn2TzCpDeZR-SsBONR-86">
          <mxGeometry x="145" y="345" width="150" height="50" as="geometry" />
        </mxCell>
        <mxCell id="YxFn2TzCpDeZR-SsBONR-88" style="rounded=0;orthogonalLoop=1;jettySize=auto;html=1;exitX=1;exitY=0.3333333333333333;exitDx=0;exitDy=0;exitPerimeter=0;entryX=0;entryY=0.5;entryDx=0;entryDy=0;fontFamily=Times New Roman;" edge="1" parent="YxFn2TzCpDeZR-SsBONR-86" source="YxFn2TzCpDeZR-SsBONR-91" target="YxFn2TzCpDeZR-SsBONR-97">
          <mxGeometry relative="1" as="geometry" />
        </mxCell>
        <mxCell id="YxFn2TzCpDeZR-SsBONR-100" value="Mengelola Laporan Bulanan" style="ellipse;whiteSpace=wrap;html=1;fontFamily=Times New Roman;fillColor=#0050ef;fontColor=#ffffff;strokeColor=#ffffff;" vertex="1" parent="YxFn2TzCpDeZR-SsBONR-86">
          <mxGeometry x="151.25" y="490" width="175" height="60" as="geometry" />
        </mxCell>
        <mxCell id="YxFn2TzCpDeZR-SsBONR-89" style="rounded=0;orthogonalLoop=1;jettySize=auto;html=1;exitX=1;exitY=0.3333333333333333;exitDx=0;exitDy=0;exitPerimeter=0;entryX=0;entryY=0.5;entryDx=0;entryDy=0;fontFamily=Times New Roman;" edge="1" parent="YxFn2TzCpDeZR-SsBONR-86" source="YxFn2TzCpDeZR-SsBONR-91" target="YxFn2TzCpDeZR-SsBONR-100">
          <mxGeometry relative="1" as="geometry" />
        </mxCell>
        <mxCell id="YxFn2TzCpDeZR-SsBONR-101" style="edgeStyle=orthogonalEdgeStyle;rounded=0;orthogonalLoop=1;jettySize=auto;html=1;exitX=0.5;exitY=1;exitDx=0;exitDy=0;fontFamily=Times New Roman;" edge="1" parent="YxFn2TzCpDeZR-SsBONR-86" source="YxFn2TzCpDeZR-SsBONR-97" target="YxFn2TzCpDeZR-SsBONR-97">
          <mxGeometry relative="1" as="geometry" />
        </mxCell>
        <mxCell id="YxFn2TzCpDeZR-SsBONR-102" value="Menambah data Pelanggan" style="ellipse;whiteSpace=wrap;html=1;fontFamily=Times New Roman;fillColor=#0050ef;fontColor=#ffffff;strokeColor=#ffffff;" vertex="1" parent="YxFn2TzCpDeZR-SsBONR-86">
          <mxGeometry x="450" y="210" width="160" height="50" as="geometry" />
        </mxCell>
        <mxCell id="YxFn2TzCpDeZR-SsBONR-94" style="edgeStyle=none;rounded=0;orthogonalLoop=1;jettySize=auto;html=1;exitX=1;exitY=0.5;exitDx=0;exitDy=0;entryX=0;entryY=0.5;entryDx=0;entryDy=0;endArrow=none;endFill=0;dashed=1;" edge="1" parent="YxFn2TzCpDeZR-SsBONR-86" source="YxFn2TzCpDeZR-SsBONR-97" target="YxFn2TzCpDeZR-SsBONR-102">
          <mxGeometry relative="1" as="geometry" />
        </mxCell>
        <mxCell id="YxFn2TzCpDeZR-SsBONR-103" value="Mengedit Data Pelanggan" style="ellipse;whiteSpace=wrap;html=1;fontFamily=Times New Roman;fillColor=#0050ef;fontColor=#ffffff;strokeColor=#ffffff;" vertex="1" parent="YxFn2TzCpDeZR-SsBONR-86">
          <mxGeometry x="450" y="300" width="160" height="50" as="geometry" />
        </mxCell>
        <mxCell id="YxFn2TzCpDeZR-SsBONR-95" style="edgeStyle=none;rounded=0;orthogonalLoop=1;jettySize=auto;html=1;exitX=1;exitY=0.5;exitDx=0;exitDy=0;entryX=0;entryY=0.5;entryDx=0;entryDy=0;endArrow=none;endFill=0;dashed=1;" edge="1" parent="YxFn2TzCpDeZR-SsBONR-86" source="YxFn2TzCpDeZR-SsBONR-97" target="YxFn2TzCpDeZR-SsBONR-103">
          <mxGeometry relative="1" as="geometry" />
        </mxCell>
        <mxCell id="YxFn2TzCpDeZR-SsBONR-104" value="Menghapus Data Pelanggan" style="ellipse;whiteSpace=wrap;html=1;fontFamily=Times New Roman;fillColor=#0050ef;fontColor=#ffffff;strokeColor=#ffffff;" vertex="1" parent="YxFn2TzCpDeZR-SsBONR-86">
          <mxGeometry x="450" y="370" width="160" height="50" as="geometry" />
        </mxCell>
        <mxCell id="YxFn2TzCpDeZR-SsBONR-96" style="edgeStyle=none;rounded=0;orthogonalLoop=1;jettySize=auto;html=1;exitX=1;exitY=0.5;exitDx=0;exitDy=0;entryX=0;entryY=0.5;entryDx=0;entryDy=0;endArrow=none;endFill=0;dashed=1;" edge="1" parent="YxFn2TzCpDeZR-SsBONR-86" source="YxFn2TzCpDeZR-SsBONR-97" target="YxFn2TzCpDeZR-SsBONR-104">
          <mxGeometry relative="1" as="geometry" />
        </mxCell>
        <mxCell id="YxFn2TzCpDeZR-SsBONR-106" value="Cek Laporan Bulanan" style="ellipse;whiteSpace=wrap;html=1;fontFamily=Times New Roman;fillColor=#0050ef;fontColor=#ffffff;strokeColor=#ffffff;" vertex="1" parent="YxFn2TzCpDeZR-SsBONR-86">
          <mxGeometry x="425" y="460" width="175" height="60" as="geometry" />
        </mxCell>
        <mxCell id="YxFn2TzCpDeZR-SsBONR-98" style="edgeStyle=none;rounded=0;orthogonalLoop=1;jettySize=auto;html=1;exitX=1;exitY=0.5;exitDx=0;exitDy=0;entryX=0;entryY=0.5;entryDx=0;entryDy=0;endArrow=none;endFill=0;dashed=1;" edge="1" parent="YxFn2TzCpDeZR-SsBONR-86" source="YxFn2TzCpDeZR-SsBONR-100" target="YxFn2TzCpDeZR-SsBONR-106">
          <mxGeometry relative="1" as="geometry" />
        </mxCell>
        <mxCell id="YxFn2TzCpDeZR-SsBONR-107" value="Cetak Laporan Bulanan" style="ellipse;whiteSpace=wrap;html=1;fontFamily=Times New Roman;fillColor=#0050ef;fontColor=#ffffff;strokeColor=#ffffff;" vertex="1" parent="YxFn2TzCpDeZR-SsBONR-86">
          <mxGeometry x="425" y="585" width="175" height="60" as="geometry" />
        </mxCell>
        <mxCell id="YxFn2TzCpDeZR-SsBONR-99" style="edgeStyle=none;rounded=0;orthogonalLoop=1;jettySize=auto;html=1;exitX=1;exitY=0.5;exitDx=0;exitDy=0;entryX=0;entryY=0.5;entryDx=0;entryDy=0;endArrow=none;endFill=0;dashed=1;" edge="1" parent="YxFn2TzCpDeZR-SsBONR-86" source="YxFn2TzCpDeZR-SsBONR-100" target="YxFn2TzCpDeZR-SsBONR-107">
          <mxGeometry relative="1" as="geometry" />
        </mxCell>
        <mxCell id="YxFn2TzCpDeZR-SsBONR-105" value="" style="edgeStyle=none;rounded=0;orthogonalLoop=1;jettySize=auto;html=1;endArrow=none;endFill=0;dashed=1;" edge="1" parent="YxFn2TzCpDeZR-SsBONR-86" source="YxFn2TzCpDeZR-SsBONR-106" target="YxFn2TzCpDeZR-SsBONR-107">
          <mxGeometry relative="1" as="geometry" />
        </mxCell>
        <mxCell id="YxFn2TzCpDeZR-SsBONR-108" value="&amp;lt;&amp;lt;include&amp;gt;&amp;gt;" style="text;html=1;align=center;verticalAlign=middle;resizable=0;points=[];autosize=1;strokeColor=none;fillColor=none;" vertex="1" parent="YxFn2TzCpDeZR-SsBONR-86">
          <mxGeometry x="317.5" y="585" width="90" height="30" as="geometry" />
        </mxCell>
        <mxCell id="YxFn2TzCpDeZR-SsBONR-109" value="&amp;lt;&amp;lt;include&amp;gt;&amp;gt;" style="text;html=1;align=center;verticalAlign=middle;resizable=0;points=[];autosize=1;strokeColor=none;fillColor=none;" vertex="1" parent="YxFn2TzCpDeZR-SsBONR-86">
          <mxGeometry x="360" y="310" width="90" height="30" as="geometry" />
        </mxCell>
        <mxCell id="YxFn2TzCpDeZR-SsBONR-110" value="Extend" style="text;html=1;align=center;verticalAlign=middle;resizable=0;points=[];autosize=1;strokeColor=none;fillColor=none;" vertex="1" parent="YxFn2TzCpDeZR-SsBONR-86">
          <mxGeometry x="515" y="550" width="60" height="30" as="geometry" />
        </mxCell>
        <mxCell id="YxFn2TzCpDeZR-SsBONR-111" value="&amp;lt;&amp;lt;include&amp;gt;&amp;gt;" style="text;html=1;align=center;verticalAlign=middle;resizable=0;points=[];autosize=1;strokeColor=none;fillColor=none;" vertex="1" parent="YxFn2TzCpDeZR-SsBONR-86">
          <mxGeometry x="326.25" y="250" width="90" height="30" as="geometry" />
        </mxCell>
        <mxCell id="YxFn2TzCpDeZR-SsBONR-112" value="&amp;lt;&amp;lt;include&amp;gt;&amp;gt;" style="text;html=1;align=center;verticalAlign=middle;resizable=0;points=[];autosize=1;strokeColor=none;fillColor=none;" vertex="1" parent="YxFn2TzCpDeZR-SsBONR-86">
          <mxGeometry x="335" y="380" width="90" height="30" as="geometry" />
        </mxCell>
        <mxCell id="YxFn2TzCpDeZR-SsBONR-113" value="&amp;lt;&amp;lt;include&amp;gt;&amp;gt;" style="text;html=1;align=center;verticalAlign=middle;resizable=0;points=[];autosize=1;strokeColor=none;fillColor=none;" vertex="1" parent="YxFn2TzCpDeZR-SsBONR-86">
          <mxGeometry x="335" y="505" width="90" height="30" as="geometry" />
        </mxCell>
        <mxCell id="YxFn2TzCpDeZR-SsBONR-114" value="Admin Login" style="ellipse;whiteSpace=wrap;html=1;fontFamily=Times New Roman;fillColor=#0050ef;fontColor=#ffffff;strokeColor=#ffffff;" vertex="1" parent="YxFn2TzCpDeZR-SsBONR-86">
          <mxGeometry x="160" y="130" width="140" height="50" as="geometry" />
        </mxCell>
        <mxCell id="YxFn2TzCpDeZR-SsBONR-90" style="edgeStyle=none;rounded=0;orthogonalLoop=1;jettySize=auto;html=1;exitX=1;exitY=0.3333333333333333;exitDx=0;exitDy=0;exitPerimeter=0;entryX=0;entryY=0.5;entryDx=0;entryDy=0;" edge="1" parent="YxFn2TzCpDeZR-SsBONR-86" source="YxFn2TzCpDeZR-SsBONR-91" target="YxFn2TzCpDeZR-SsBONR-114">
          <mxGeometry relative="1" as="geometry" />
        </mxCell>
      </root>
    </mxGraphModel>
  </diagram>
</mxfile>
